<svg xmlns="http://www.w3.org/2000/svg" version="1.1" xmlns:xlink="http://www.w3.org/1999/xlink" xmlns:svgjs="http://svgjs.dev/svgjs" width="1500" height="1500" viewBox="0 0 1500 1500"><rect width="1500" height="1500" fill="#000000"></rect><g transform="matrix(0.6666666666666666,0,0,0.6666666666666666,249.39393939393938,624.678628526187)"><svg viewBox="0 0 396 99" data-background-color="#fffbf4" preserveAspectRatio="xMidYMid meet" height="375" width="1500" xmlns="http://www.w3.org/2000/svg" xmlns:xlink="http://www.w3.org/1999/xlink"><g id="tight-bounds" transform="matrix(1,0,0,1,0.2400000000000091,0.12726310362992876)"><svg viewBox="0 0 395.52 98.74547379274013" height="98.74547379274013" width="395.52"><g><svg viewBox="0 0 580.4097254294461 144.90501954754467" height="98.74547379274013" width="395.52"><g transform="matrix(1,0,0,1,184.88972542944612,20.026670574226515)"><svg viewBox="0 0 395.52 104.85167839909164" height="104.85167839909164" width="395.52"><g id="textblocktransform"><svg viewBox="0 0 395.52 104.85167839909164" height="104.85167839909164" width="395.52" id="textblock"><g><svg viewBox="0 0 395.52 56.62149265126934" height="56.62149265126934" width="395.52"><g transform="matrix(1,0,0,1,0,0)"><svg width="395.52" viewBox="4.17 -36.93 261.94 37.51" height="56.62149265126934" data-palette-color="#3d4950"><g class="wordmark-text-0" data-fill-palette-color="primary" id="text-0"><path d="M23-17.38L23-17.38Q23-21.88 22.05-24.58 21.1-27.28 19.55-28.63 18-29.98 16.16-30.43 14.33-30.88 12.55-30.88L12.55-30.88 8.5-30.88 8.5-3.48 12.6-3.48Q14.45-3.48 16.29-4.06 18.13-4.65 19.65-6.16 21.18-7.68 22.09-10.39 23-13.1 23-17.38ZM27.63-17.38L27.63-17.38Q27.63-11.98 26.23-8.56 24.83-5.15 22.53-3.29 20.23-1.43 17.49-0.71 14.75 0 12.08 0L12.08 0 4.17 0 4.17-34.43 11.53-34.43Q14.55-34.43 17.41-33.75 20.28-33.08 22.59-31.26 24.9-29.45 26.26-26.1 27.63-22.75 27.63-17.38ZM53.87-18.38L53.87-5.75Q53.87-4.17 54.4-3.45 54.92-2.73 56.02-2.38L56.02-2.38 55 0.58Q53.3 0.35 52.02-0.51 50.75-1.38 50.17-3.13L50.17-3.13Q48.75-1.3 46.62-0.36 44.5 0.58 41.92 0.58L41.92 0.58Q37.97 0.58 35.7-1.65 33.42-3.88 33.42-7.55L33.42-7.55Q33.42-11.63 36.6-13.8 39.77-15.98 45.77-15.98L45.77-15.98 49.65-15.98 49.65-18.18Q49.65-21.03 47.98-22.21 46.32-23.4 43.37-23.4L43.37-23.4Q42.07-23.4 40.32-23.09 38.57-22.78 36.52-22.05L36.52-22.05 35.42-25.23Q37.85-26.13 39.97-26.5 42.1-26.88 44.02-26.88L44.02-26.88Q48.95-26.88 51.41-24.59 53.87-22.3 53.87-18.38L53.87-18.38ZM43-2.63L43-2.63Q44.95-2.63 46.72-3.61 48.5-4.6 49.65-6.35L49.65-6.35 49.65-13.13 45.85-13.13Q41.5-13.13 39.71-11.63 37.92-10.13 37.92-7.6L37.92-7.6Q37.92-5.15 39.19-3.89 40.45-2.63 43-2.63ZM84.3-4.17L85.92-1.33Q84.57-0.43 82.65 0.08 80.72 0.58 78.87 0.58L78.87 0.58Q74.62 0.58 72.32-1.65 70.02-3.88 70.02-7.38L70.02-7.38 70.02-23.08 63.97-23.08 63.97-26.33 70.02-26.33 70.02-32.3 74.22-32.8 74.22-26.33 83.32-26.33 82.82-23.08 74.22-23.08 74.22-7.43Q74.22-5.23 75.38-4.08 76.55-2.93 79.25-2.93L79.25-2.93Q80.72-2.93 81.97-3.28 83.22-3.63 84.3-4.17L84.3-4.17ZM116.02-11.68L98.32-11.68Q98.44-8.63 99.49-6.69 100.54-4.75 102.27-3.84 103.99-2.93 106.02-2.93L106.02-2.93Q108.04-2.93 109.68-3.53 111.32-4.13 113.04-5.3L113.04-5.3 115.02-2.53Q113.17-1.07 110.81-0.25 108.44 0.58 105.97 0.58L105.97 0.58Q102.14 0.58 99.44-1.15 96.74-2.88 95.33-5.96 93.92-9.05 93.92-13.13L93.92-13.13Q93.92-17.13 95.34-20.23 96.77-23.33 99.34-25.1 101.92-26.88 105.42-26.88L105.42-26.88Q108.74-26.88 111.14-25.31 113.54-23.75 114.83-20.86 116.12-17.98 116.12-13.98L116.12-13.98Q116.12-13.3 116.09-12.71 116.07-12.13 116.02-11.68L116.02-11.68ZM105.47-23.43L105.47-23.43Q102.54-23.43 100.58-21.35 98.62-19.28 98.34-14.93L98.34-14.93 112.07-14.93Q111.99-19.15 110.22-21.29 108.44-23.43 105.47-23.43ZM143.19-23.8L143.19-23.8Q143.19-26.48 142.14-28.04 141.09-29.6 139.27-30.29 137.44-30.98 135.09-30.98L135.09-30.98 130.12-30.98 130.12-16.28 134.92-16.28Q137.34-16.28 139.19-16.94 141.04-17.6 142.12-19.24 143.19-20.88 143.19-23.8ZM147.84-23.85L147.84-23.85Q147.84-19.83 146.13-17.4 144.42-14.98 141.42-13.88 138.42-12.78 134.52-12.78L134.52-12.78 130.12-12.78 130.12 0 125.77 0 125.77-34.43 134.56-34.43Q140.72-34.43 144.28-31.84 147.84-29.25 147.84-23.85ZM155.01-26.33L159.21-26.33 159.21-7.68Q159.21-5.08 160.29-3.93 161.36-2.78 163.64-2.78L163.64-2.78Q165.81-2.78 167.75-4.01 169.69-5.25 170.76-6.95L170.76-6.95 170.76-26.33 174.96-26.33 174.96 0 171.39 0 171.04-3.55Q169.49-1.55 167.21-0.49 164.94 0.58 162.61 0.58L162.61 0.58Q158.79 0.58 156.9-1.46 155.01-3.5 155.01-7.18L155.01-7.18 155.01-26.33ZM182.99-36.93L195.26-36.93 195.26-6.5Q195.26-4.55 196.47-3.74 197.69-2.93 199.61-2.93L199.61-2.93Q200.81-2.93 201.89-3.18 202.96-3.43 204.04-3.85L204.04-3.85 205.16-0.78Q204.09-0.25 202.5 0.16 200.91 0.58 198.91 0.58L198.91 0.58Q195.41 0.58 193.24-1.36 191.06-3.3 191.06-6.73L191.06-6.73 191.06-33.6 182.99-33.6 182.99-36.93ZM223.96-2.9L223.96-2.9Q226.98-2.9 228.75-4.04 230.51-5.18 230.51-7.08L230.51-7.08Q230.51-8.28 230.07-9.15 229.63-10.03 228.28-10.73 226.93-11.43 224.13-12.13L224.13-12.13Q221.41-12.8 219.4-13.69 217.38-14.58 216.27-16 215.16-17.43 215.16-19.7L215.16-19.7Q215.16-21.93 216.42-23.54 217.68-25.15 219.93-26.01 222.18-26.88 225.16-26.88L225.16-26.88Q228.33-26.88 230.7-26.04 233.06-25.2 234.71-23.98L234.71-23.98 232.86-21.13Q231.36-22.15 229.56-22.81 227.76-23.48 225.21-23.48L225.21-23.48Q222.11-23.48 220.81-22.51 219.51-21.55 219.51-20.03L219.51-20.03Q219.51-18.88 220.15-18.11 220.78-17.35 222.31-16.74 223.83-16.13 226.51-15.4L226.51-15.4Q229.08-14.73 231-13.78 232.91-12.83 233.98-11.28 235.06-9.73 235.06-7.28L235.06-7.28Q235.06-4.48 233.46-2.74 231.86-1 229.32-0.21 226.78 0.58 223.96 0.58L223.96 0.58Q220.38 0.58 217.87-0.46 215.36-1.5 213.66-2.98L213.66-2.98 216.06-5.75Q217.61-4.48 219.62-3.69 221.63-2.9 223.96-2.9ZM266-11.68L248.31-11.68Q248.43-8.63 249.48-6.69 250.53-4.75 252.26-3.84 253.98-2.93 256-2.93L256-2.93Q258.03-2.93 259.67-3.53 261.31-4.13 263.03-5.3L263.03-5.3 265-2.53Q263.16-1.07 260.79-0.25 258.43 0.58 255.96 0.58L255.96 0.58Q252.13 0.58 249.43-1.15 246.73-2.88 245.32-5.96 243.91-9.05 243.91-13.13L243.91-13.13Q243.91-17.13 245.33-20.23 246.76-23.33 249.33-25.1 251.91-26.88 255.41-26.88L255.41-26.88Q258.73-26.88 261.13-25.31 263.53-23.75 264.82-20.86 266.11-17.98 266.11-13.98L266.11-13.98Q266.11-13.3 266.08-12.71 266.06-12.13 266-11.68L266-11.68ZM255.46-23.43L255.46-23.43Q252.53-23.43 250.57-21.35 248.61-19.28 248.33-14.93L248.33-14.93 262.06-14.93Q261.98-19.15 260.21-21.29 258.43-23.43 255.46-23.43Z" fill="#ffffff" data-fill-palette-color="primary"></path></g></svg></g></svg></g><g transform="matrix(1,0,0,1,0,69.9884681504104)"><svg viewBox="0 0 375.74399999999997 34.86321024868124" height="34.86321024868124" width="375.74399999999997"><g transform="matrix(1,0,0,1,0,0)"><svg width="375.74399999999997" viewBox="4.17 -38.65 525.84 49.25" height="34.86321024868124" data-palette-color="#3d4950"><g class="slogan-text-1" data-fill-palette-color="secondary" id="text-1"><path d="M25.83 0L21.5 0 21.5-16.32 8.5-16.32 8.5 0 4.17 0 4.17-34.43 8.5-34.43 8.5-19.88 21.5-19.88 21.5-34.43 25.83-34.43 25.83 0ZM56.02-11.68L38.32-11.68Q38.45-8.63 39.5-6.69 40.55-4.75 42.27-3.84 44-2.93 46.02-2.93L46.02-2.93Q48.05-2.93 49.69-3.53 51.32-4.13 53.05-5.3L53.05-5.3 55.02-2.53Q53.17-1.07 50.81-0.25 48.45 0.58 45.97 0.58L45.97 0.58Q42.15 0.58 39.45-1.15 36.75-2.88 35.34-5.96 33.92-9.05 33.92-13.13L33.92-13.13Q33.92-17.13 35.35-20.23 36.77-23.33 39.35-25.1 41.92-26.88 45.42-26.88L45.42-26.88Q48.75-26.88 51.15-25.31 53.55-23.75 54.84-20.86 56.12-17.98 56.12-13.98L56.12-13.98Q56.12-13.3 56.1-12.71 56.07-12.13 56.02-11.68L56.02-11.68ZM45.47-23.43L45.47-23.43Q42.55-23.43 40.59-21.35 38.62-19.28 38.35-14.93L38.35-14.93 52.07-14.93Q52-19.15 50.22-21.29 48.45-23.43 45.47-23.43ZM83.87-18.38L83.87-5.75Q83.87-4.17 84.4-3.45 84.92-2.73 86.02-2.38L86.02-2.38 85 0.58Q83.3 0.35 82.02-0.51 80.75-1.38 80.17-3.13L80.17-3.13Q78.75-1.3 76.62-0.36 74.5 0.58 71.92 0.58L71.92 0.58Q67.97 0.58 65.7-1.65 63.42-3.88 63.42-7.55L63.42-7.55Q63.42-11.63 66.59-13.8 69.77-15.98 75.77-15.98L75.77-15.98 79.65-15.98 79.65-18.18Q79.65-21.03 77.98-22.21 76.32-23.4 73.37-23.4L73.37-23.4Q72.07-23.4 70.32-23.09 68.57-22.78 66.52-22.05L66.52-22.05 65.42-25.23Q67.84-26.13 69.97-26.5 72.09-26.88 74.02-26.88L74.02-26.88Q78.95-26.88 81.41-24.59 83.87-22.3 83.87-18.38L83.87-18.38ZM73-2.63L73-2.63Q74.95-2.63 76.72-3.61 78.5-4.6 79.65-6.35L79.65-6.35 79.65-13.13 75.84-13.13Q71.5-13.13 69.71-11.63 67.92-10.13 67.92-7.6L67.92-7.6Q67.92-5.15 69.18-3.89 70.45-2.63 73-2.63ZM108.92 0L95.27 0 95.27-3.23 99.37-3.23 99.37-23.1 95.27-23.1 95.27-26.33 102.57-26.33 103.34-20.1Q104.87-23.35 107.04-25.13 109.22-26.9 112.79-26.9L112.79-26.9Q113.89-26.9 114.76-26.74 115.62-26.58 116.52-26.33L116.52-26.33 115.29-22.58Q114.47-22.8 113.79-22.91 113.12-23.03 112.24-23.03L112.24-23.03Q109.22-23.03 107.04-20.88 104.87-18.73 103.57-14.38L103.57-14.38 103.57-3.23 108.92-3.23 108.92 0ZM115.92-17.43L112.47-17.43 112.47-23.15 112.89-26.33 116.52-26.33 115.92-17.43ZM144.29-4.17L145.92-1.33Q144.56-0.43 142.64 0.08 140.72 0.58 138.87 0.58L138.87 0.58Q134.62 0.58 132.31-1.65 130.02-3.88 130.02-7.38L130.02-7.38 130.02-23.08 123.97-23.08 123.97-26.33 130.02-26.33 130.02-32.3 134.22-32.8 134.22-26.33 143.31-26.33 142.81-23.08 134.22-23.08 134.22-7.43Q134.22-5.23 135.38-4.08 136.54-2.93 139.24-2.93L139.24-2.93Q140.72-2.93 141.97-3.28 143.22-3.63 144.29-4.17L144.29-4.17ZM159.21-37.45L159.21-22.9Q160.66-24.8 162.55-25.84 164.44-26.88 166.71-26.88L166.71-26.88Q170.24-26.88 172.41-25.18 174.59-23.48 175.59-20.39 176.59-17.3 176.59-13.18L176.59-13.18Q176.59-9.2 175.39-6.09 174.19-2.98 171.88-1.2 169.56 0.58 166.16 0.58L166.16 0.58Q161.59 0.58 158.99-2.73L158.99-2.73 158.69 0 155.01 0 155.01-36.93 159.21-37.45ZM165.16-2.83L165.16-2.83Q168.46-2.83 170.24-5.38 172.01-7.93 172.01-13.2L172.01-13.2Q172.01-16.65 171.31-18.94 170.61-21.23 169.23-22.36 167.84-23.5 165.81-23.5L165.81-23.5Q163.61-23.5 161.95-22.19 160.29-20.88 159.21-19.28L159.21-19.28 159.21-6.23Q160.24-4.67 161.8-3.75 163.36-2.83 165.16-2.83ZM206.01-11.68L188.31-11.68Q188.44-8.63 189.49-6.69 190.54-4.75 192.26-3.84 193.99-2.93 196.01-2.93L196.01-2.93Q198.04-2.93 199.67-3.53 201.31-4.13 203.04-5.3L203.04-5.3 205.01-2.53Q203.16-1.07 200.8-0.25 198.44 0.58 195.96 0.58L195.96 0.58Q192.14 0.58 189.44-1.15 186.74-2.88 185.32-5.96 183.91-9.05 183.91-13.13L183.91-13.13Q183.91-17.13 185.34-20.23 186.76-23.33 189.34-25.1 191.91-26.88 195.41-26.88L195.41-26.88Q198.74-26.88 201.14-25.31 203.54-23.75 204.82-20.86 206.11-17.98 206.11-13.98L206.11-13.98Q206.11-13.3 206.09-12.71 206.06-12.13 206.01-11.68L206.01-11.68ZM195.46-23.43L195.46-23.43Q192.54-23.43 190.57-21.35 188.61-19.28 188.34-14.93L188.34-14.93 202.06-14.93Q201.99-19.15 200.21-21.29 198.44-23.43 195.46-23.43ZM233.86-18.38L233.86-5.75Q233.86-4.17 234.38-3.45 234.91-2.73 236.01-2.38L236.01-2.38 234.98 0.58Q233.28 0.35 232.01-0.51 230.73-1.38 230.16-3.13L230.16-3.13Q228.73-1.3 226.61-0.36 224.48 0.58 221.91 0.58L221.91 0.58Q217.96 0.58 215.68-1.65 213.41-3.88 213.41-7.55L213.41-7.55Q213.41-11.63 216.58-13.8 219.76-15.98 225.76-15.98L225.76-15.98 229.63-15.98 229.63-18.18Q229.63-21.03 227.97-22.21 226.31-23.4 223.36-23.4L223.36-23.4Q222.06-23.4 220.31-23.09 218.56-22.78 216.51-22.05L216.51-22.05 215.41-25.23Q217.83-26.13 219.96-26.5 222.08-26.88 224.01-26.88L224.01-26.88Q228.93-26.88 231.4-24.59 233.86-22.3 233.86-18.38L233.86-18.38ZM222.98-2.63L222.98-2.63Q224.93-2.63 226.71-3.61 228.48-4.6 229.63-6.35L229.63-6.35 229.63-13.13 225.83-13.13Q221.48-13.13 219.7-11.63 217.91-10.13 217.91-7.6L217.91-7.6Q217.91-5.15 219.17-3.89 220.43-2.63 222.98-2.63ZM264.28-4.17L265.91-1.33Q264.56-0.43 262.63 0.08 260.71 0.58 258.86 0.58L258.86 0.58Q254.61 0.58 252.31-1.65 250.01-3.88 250.01-7.38L250.01-7.38 250.01-23.08 243.96-23.08 243.96-26.33 250.01-26.33 250.01-32.3 254.21-32.8 254.21-26.33 263.31-26.33 262.81-23.08 254.21-23.08 254.21-7.43Q254.21-5.23 255.37-4.08 256.53-2.93 259.23-2.93L259.23-2.93Q260.71-2.93 261.96-3.28 263.21-3.63 264.28-4.17L264.28-4.17ZM283.95-2.9L283.95-2.9Q286.98-2.9 288.74-4.04 290.5-5.18 290.5-7.08L290.5-7.08Q290.5-8.28 290.06-9.15 289.63-10.03 288.28-10.73 286.93-11.43 284.13-12.13L284.13-12.13Q281.4-12.8 279.39-13.69 277.38-14.58 276.27-16 275.15-17.43 275.15-19.7L275.15-19.7Q275.15-21.93 276.42-23.54 277.68-25.15 279.93-26.01 282.18-26.88 285.15-26.88L285.15-26.88Q288.33-26.88 290.69-26.04 293.05-25.2 294.7-23.98L294.7-23.98 292.85-21.13Q291.35-22.15 289.55-22.81 287.75-23.48 285.2-23.48L285.2-23.48Q282.1-23.48 280.8-22.51 279.5-21.55 279.5-20.03L279.5-20.03Q279.5-18.88 280.14-18.11 280.78-17.35 282.3-16.74 283.83-16.13 286.5-15.4L286.5-15.4Q289.08-14.73 290.99-13.78 292.9-12.83 293.98-11.28 295.05-9.73 295.05-7.28L295.05-7.28Q295.05-4.48 293.45-2.74 291.85-1 289.31-0.21 286.78 0.58 283.95 0.58L283.95 0.58Q280.38 0.58 277.87-0.46 275.35-1.5 273.65-2.98L273.65-2.98 276.05-5.75Q277.6-4.48 279.62-3.69 281.63-2.9 283.95-2.9Z" fill="#ffffff" data-fill-palette-color="primary"></path></g></svg></g></svg></g></svg></g></svg></g><g><svg viewBox="0 0 171.52274993030505 144.90501954754467" height="144.90501954754467" width="171.52274993030505"><g><svg xmlns="http://www.w3.org/2000/svg" xmlns:xlink="http://www.w3.org/1999/xlink" version="1.1" x="0" y="0" viewBox="1.8319503776781467 9.346999941129708 96.33704962232186 81.38700005887029" enable-background="new 0 0 100 100.08" xml:space="preserve" height="144.90501954754467" width="171.52274993030505" class="icon-icon-0" data-fill-palette-color="accent" id="icon-0"></svg></g></svg></g></svg></g><defs></defs><mask id="0b1be4bf-c6f7-42f9-a796-d8fefc13e366"><g id="SvgjsG2372"><svg viewBox="0 0 395.52 98.74547379274013" height="98.74547379274013" width="395.52"><g><svg viewBox="0 0 580.4097254294461 144.90501954754467" height="98.74547379274013" width="395.52"><g transform="matrix(1,0,0,1,184.88972542944612,20.026670574226515)"><svg viewBox="0 0 395.52 104.85167839909164" height="104.85167839909164" width="395.52"><g id="SvgjsG2371"><svg viewBox="0 0 395.52 104.85167839909164" height="104.85167839909164" width="395.52" id="SvgjsSvg2370"><g><svg viewBox="0 0 395.52 56.62149265126934" height="56.62149265126934" width="395.52"><g transform="matrix(1,0,0,1,0,0)"><svg width="395.52" viewBox="4.17 -36.93 261.94 37.51" height="56.62149265126934" data-palette-color="#3d4950"><g class="wordmark-text-0" data-fill-palette-color="primary" id="SvgjsG2369"><path d="M23-17.38L23-17.38Q23-21.88 22.05-24.58 21.1-27.28 19.55-28.63 18-29.98 16.16-30.43 14.33-30.88 12.55-30.88L12.55-30.88 8.5-30.88 8.5-3.48 12.6-3.48Q14.45-3.48 16.29-4.06 18.13-4.65 19.65-6.16 21.18-7.68 22.09-10.39 23-13.1 23-17.38ZM27.63-17.38L27.63-17.38Q27.63-11.98 26.23-8.56 24.83-5.15 22.53-3.29 20.23-1.43 17.49-0.71 14.75 0 12.08 0L12.08 0 4.17 0 4.17-34.43 11.53-34.43Q14.55-34.43 17.41-33.75 20.28-33.08 22.59-31.26 24.9-29.45 26.26-26.1 27.63-22.75 27.63-17.38ZM53.87-18.38L53.87-5.75Q53.87-4.17 54.4-3.45 54.92-2.73 56.02-2.38L56.02-2.38 55 0.58Q53.3 0.35 52.02-0.51 50.75-1.38 50.17-3.13L50.17-3.13Q48.75-1.3 46.62-0.36 44.5 0.58 41.92 0.58L41.92 0.58Q37.97 0.58 35.7-1.65 33.42-3.88 33.42-7.55L33.42-7.55Q33.42-11.63 36.6-13.8 39.77-15.98 45.77-15.98L45.77-15.98 49.65-15.98 49.65-18.18Q49.65-21.03 47.98-22.21 46.32-23.4 43.37-23.4L43.37-23.4Q42.07-23.4 40.32-23.09 38.57-22.78 36.52-22.05L36.52-22.05 35.42-25.23Q37.85-26.13 39.97-26.5 42.1-26.88 44.02-26.88L44.02-26.88Q48.95-26.88 51.41-24.59 53.87-22.3 53.87-18.38L53.87-18.38ZM43-2.63L43-2.63Q44.95-2.63 46.72-3.61 48.5-4.6 49.65-6.35L49.65-6.35 49.65-13.13 45.85-13.13Q41.5-13.13 39.71-11.63 37.92-10.13 37.92-7.6L37.92-7.6Q37.92-5.15 39.19-3.89 40.45-2.63 43-2.63ZM84.3-4.17L85.92-1.33Q84.57-0.43 82.65 0.08 80.72 0.58 78.87 0.58L78.87 0.58Q74.62 0.58 72.32-1.65 70.02-3.88 70.02-7.38L70.02-7.38 70.02-23.08 63.97-23.08 63.97-26.33 70.02-26.33 70.02-32.3 74.22-32.8 74.22-26.33 83.32-26.33 82.82-23.08 74.22-23.08 74.22-7.43Q74.22-5.23 75.38-4.08 76.55-2.93 79.25-2.93L79.25-2.93Q80.72-2.93 81.97-3.28 83.22-3.63 84.3-4.17L84.3-4.17ZM116.02-11.68L98.32-11.68Q98.44-8.63 99.49-6.69 100.54-4.75 102.27-3.84 103.99-2.93 106.02-2.93L106.02-2.93Q108.04-2.93 109.68-3.53 111.32-4.13 113.04-5.3L113.04-5.3 115.02-2.53Q113.17-1.07 110.81-0.25 108.44 0.58 105.97 0.58L105.97 0.58Q102.14 0.58 99.44-1.15 96.74-2.88 95.33-5.96 93.92-9.05 93.92-13.13L93.92-13.13Q93.92-17.13 95.34-20.23 96.77-23.33 99.34-25.1 101.92-26.88 105.42-26.88L105.42-26.88Q108.74-26.88 111.14-25.31 113.54-23.75 114.83-20.86 116.12-17.98 116.12-13.98L116.12-13.98Q116.12-13.3 116.09-12.71 116.07-12.13 116.02-11.68L116.02-11.68ZM105.47-23.43L105.47-23.43Q102.54-23.43 100.58-21.35 98.62-19.28 98.34-14.93L98.34-14.93 112.07-14.93Q111.99-19.15 110.22-21.29 108.44-23.43 105.47-23.43ZM143.19-23.8L143.19-23.8Q143.19-26.48 142.14-28.04 141.09-29.6 139.27-30.29 137.44-30.98 135.09-30.98L135.09-30.98 130.12-30.98 130.12-16.28 134.92-16.28Q137.34-16.28 139.19-16.94 141.04-17.6 142.12-19.24 143.19-20.88 143.19-23.8ZM147.84-23.85L147.84-23.85Q147.84-19.83 146.13-17.4 144.42-14.98 141.42-13.88 138.42-12.78 134.52-12.78L134.52-12.78 130.12-12.78 130.12 0 125.77 0 125.77-34.43 134.56-34.43Q140.72-34.43 144.28-31.84 147.84-29.25 147.84-23.85ZM155.01-26.33L159.21-26.33 159.21-7.68Q159.21-5.08 160.29-3.93 161.36-2.78 163.64-2.78L163.64-2.78Q165.81-2.78 167.75-4.01 169.69-5.25 170.76-6.95L170.76-6.95 170.76-26.33 174.96-26.33 174.96 0 171.39 0 171.04-3.55Q169.49-1.55 167.21-0.49 164.94 0.58 162.61 0.58L162.61 0.58Q158.79 0.58 156.9-1.46 155.01-3.5 155.01-7.18L155.01-7.18 155.01-26.33ZM182.99-36.93L195.26-36.93 195.26-6.5Q195.26-4.55 196.47-3.74 197.69-2.93 199.61-2.93L199.61-2.93Q200.81-2.93 201.89-3.18 202.96-3.43 204.04-3.85L204.04-3.85 205.16-0.78Q204.09-0.25 202.5 0.16 200.91 0.58 198.91 0.58L198.91 0.58Q195.41 0.58 193.24-1.36 191.06-3.3 191.06-6.73L191.06-6.73 191.06-33.6 182.99-33.6 182.99-36.93ZM223.96-2.9L223.96-2.9Q226.98-2.9 228.75-4.04 230.51-5.18 230.51-7.08L230.51-7.08Q230.51-8.28 230.07-9.15 229.63-10.03 228.28-10.73 226.93-11.43 224.13-12.13L224.13-12.13Q221.41-12.8 219.4-13.69 217.38-14.58 216.27-16 215.16-17.43 215.16-19.7L215.16-19.7Q215.16-21.93 216.42-23.54 217.68-25.15 219.93-26.01 222.18-26.88 225.16-26.88L225.16-26.88Q228.33-26.88 230.7-26.04 233.06-25.2 234.71-23.98L234.71-23.98 232.86-21.13Q231.36-22.15 229.56-22.81 227.76-23.48 225.21-23.48L225.21-23.48Q222.11-23.48 220.81-22.51 219.51-21.55 219.51-20.03L219.51-20.03Q219.51-18.88 220.15-18.11 220.78-17.35 222.31-16.74 223.83-16.13 226.51-15.4L226.51-15.4Q229.08-14.73 231-13.78 232.91-12.83 233.98-11.28 235.06-9.73 235.06-7.28L235.06-7.28Q235.06-4.48 233.46-2.74 231.86-1 229.32-0.21 226.78 0.58 223.96 0.58L223.96 0.58Q220.38 0.58 217.87-0.46 215.36-1.5 213.66-2.98L213.66-2.98 216.06-5.75Q217.61-4.48 219.62-3.69 221.63-2.9 223.96-2.9ZM266-11.68L248.31-11.68Q248.43-8.63 249.48-6.69 250.53-4.75 252.26-3.84 253.98-2.93 256-2.93L256-2.93Q258.03-2.93 259.67-3.53 261.31-4.13 263.03-5.3L263.03-5.3 265-2.53Q263.16-1.07 260.79-0.25 258.43 0.58 255.96 0.58L255.96 0.58Q252.13 0.58 249.43-1.15 246.73-2.88 245.32-5.96 243.91-9.05 243.91-13.13L243.91-13.13Q243.91-17.13 245.33-20.23 246.76-23.33 249.33-25.1 251.91-26.88 255.41-26.88L255.41-26.88Q258.73-26.88 261.13-25.31 263.53-23.75 264.82-20.86 266.11-17.98 266.11-13.98L266.11-13.98Q266.11-13.3 266.08-12.71 266.06-12.13 266-11.68L266-11.68ZM255.46-23.43L255.46-23.43Q252.53-23.43 250.57-21.35 248.61-19.28 248.33-14.93L248.33-14.93 262.06-14.93Q261.98-19.15 260.21-21.29 258.43-23.43 255.46-23.43Z" fill="black"></path></g></svg></g></svg></g><g transform="matrix(1,0,0,1,0,69.9884681504104)"><svg viewBox="0 0 375.74399999999997 34.86321024868124" height="34.86321024868124" width="375.74399999999997"><g transform="matrix(1,0,0,1,0,0)"><svg width="375.74399999999997" viewBox="4.17 -38.65 525.84 49.25" height="34.86321024868124" data-palette-color="#3d4950"><g class="slogan-text-1" data-fill-palette-color="secondary" id="SvgjsG2368"><path d="M25.83 0L21.5 0 21.5-16.32 8.5-16.32 8.5 0 4.17 0 4.17-34.43 8.5-34.43 8.5-19.88 21.5-19.88 21.5-34.43 25.83-34.43 25.83 0ZM56.02-11.68L38.32-11.68Q38.45-8.63 39.5-6.69 40.55-4.75 42.27-3.84 44-2.93 46.02-2.93L46.02-2.93Q48.05-2.93 49.69-3.53 51.32-4.13 53.05-5.3L53.05-5.3 55.02-2.53Q53.17-1.07 50.81-0.25 48.45 0.58 45.97 0.58L45.97 0.58Q42.15 0.58 39.45-1.15 36.75-2.88 35.34-5.96 33.92-9.05 33.92-13.13L33.92-13.13Q33.92-17.13 35.35-20.23 36.77-23.33 39.35-25.1 41.92-26.88 45.42-26.88L45.42-26.88Q48.75-26.88 51.15-25.31 53.55-23.75 54.84-20.86 56.12-17.98 56.12-13.98L56.12-13.98Q56.12-13.3 56.1-12.71 56.07-12.13 56.02-11.68L56.02-11.68ZM45.47-23.43L45.47-23.43Q42.55-23.43 40.59-21.35 38.62-19.28 38.35-14.93L38.35-14.93 52.07-14.93Q52-19.15 50.22-21.29 48.45-23.43 45.47-23.43ZM83.87-18.38L83.87-5.75Q83.87-4.17 84.4-3.45 84.92-2.73 86.02-2.38L86.02-2.38 85 0.58Q83.3 0.35 82.02-0.51 80.75-1.38 80.17-3.13L80.17-3.13Q78.75-1.3 76.62-0.36 74.5 0.58 71.92 0.58L71.92 0.58Q67.97 0.58 65.7-1.65 63.42-3.88 63.42-7.55L63.42-7.55Q63.42-11.63 66.59-13.8 69.77-15.98 75.77-15.98L75.77-15.98 79.65-15.98 79.65-18.18Q79.65-21.03 77.98-22.21 76.32-23.4 73.37-23.4L73.37-23.4Q72.07-23.4 70.32-23.09 68.57-22.78 66.52-22.05L66.52-22.05 65.42-25.23Q67.84-26.13 69.97-26.5 72.09-26.88 74.02-26.88L74.02-26.88Q78.95-26.88 81.41-24.59 83.87-22.3 83.87-18.38L83.87-18.38ZM73-2.63L73-2.63Q74.95-2.63 76.72-3.61 78.5-4.6 79.65-6.35L79.65-6.35 79.65-13.13 75.84-13.13Q71.5-13.13 69.71-11.63 67.92-10.13 67.92-7.6L67.92-7.6Q67.92-5.15 69.18-3.89 70.45-2.63 73-2.63ZM108.92 0L95.27 0 95.27-3.23 99.37-3.23 99.37-23.1 95.27-23.1 95.27-26.33 102.57-26.33 103.34-20.1Q104.87-23.35 107.04-25.13 109.22-26.9 112.79-26.9L112.79-26.9Q113.89-26.9 114.76-26.74 115.62-26.58 116.52-26.33L116.52-26.33 115.29-22.58Q114.47-22.8 113.79-22.91 113.12-23.03 112.24-23.03L112.24-23.03Q109.22-23.03 107.04-20.88 104.87-18.73 103.57-14.38L103.57-14.38 103.57-3.23 108.92-3.23 108.92 0ZM115.92-17.43L112.47-17.43 112.47-23.15 112.89-26.33 116.52-26.33 115.92-17.43ZM144.29-4.17L145.92-1.33Q144.56-0.43 142.64 0.08 140.72 0.58 138.87 0.58L138.87 0.58Q134.62 0.58 132.31-1.65 130.02-3.88 130.02-7.38L130.02-7.38 130.02-23.08 123.97-23.08 123.97-26.33 130.02-26.33 130.02-32.3 134.22-32.8 134.22-26.33 143.31-26.33 142.81-23.08 134.22-23.08 134.22-7.43Q134.22-5.23 135.38-4.08 136.54-2.93 139.24-2.93L139.24-2.93Q140.72-2.93 141.97-3.28 143.22-3.63 144.29-4.17L144.29-4.17ZM159.21-37.45L159.21-22.9Q160.66-24.8 162.55-25.84 164.44-26.88 166.71-26.88L166.71-26.88Q170.24-26.88 172.41-25.18 174.59-23.48 175.59-20.39 176.59-17.3 176.59-13.18L176.59-13.18Q176.59-9.2 175.39-6.09 174.19-2.98 171.88-1.2 169.56 0.58 166.16 0.58L166.16 0.58Q161.59 0.58 158.99-2.73L158.99-2.73 158.69 0 155.01 0 155.01-36.93 159.21-37.45ZM165.16-2.83L165.16-2.83Q168.46-2.83 170.24-5.38 172.01-7.93 172.01-13.2L172.01-13.2Q172.01-16.65 171.31-18.94 170.61-21.23 169.23-22.36 167.84-23.5 165.81-23.5L165.81-23.5Q163.61-23.5 161.95-22.19 160.29-20.88 159.21-19.28L159.21-19.28 159.21-6.23Q160.24-4.67 161.8-3.75 163.36-2.83 165.16-2.83ZM206.01-11.68L188.31-11.68Q188.44-8.63 189.49-6.69 190.54-4.75 192.26-3.84 193.99-2.93 196.01-2.93L196.01-2.93Q198.04-2.93 199.67-3.53 201.31-4.13 203.04-5.3L203.04-5.3 205.01-2.53Q203.16-1.07 200.8-0.25 198.44 0.58 195.96 0.58L195.96 0.58Q192.14 0.58 189.44-1.15 186.74-2.88 185.32-5.96 183.91-9.05 183.91-13.13L183.91-13.13Q183.91-17.13 185.34-20.23 186.76-23.33 189.34-25.1 191.91-26.88 195.41-26.88L195.41-26.88Q198.74-26.88 201.14-25.31 203.54-23.75 204.82-20.86 206.11-17.98 206.11-13.98L206.11-13.98Q206.11-13.3 206.09-12.71 206.06-12.13 206.01-11.68L206.01-11.68ZM195.46-23.43L195.46-23.43Q192.54-23.43 190.57-21.35 188.61-19.28 188.34-14.93L188.34-14.93 202.06-14.93Q201.99-19.15 200.21-21.29 198.44-23.43 195.46-23.43ZM233.86-18.38L233.86-5.75Q233.86-4.17 234.38-3.45 234.91-2.73 236.01-2.38L236.01-2.38 234.98 0.58Q233.28 0.35 232.01-0.51 230.73-1.38 230.16-3.13L230.16-3.13Q228.73-1.3 226.61-0.36 224.48 0.58 221.91 0.58L221.91 0.58Q217.96 0.58 215.68-1.65 213.41-3.88 213.41-7.55L213.41-7.55Q213.41-11.63 216.58-13.8 219.76-15.98 225.76-15.98L225.76-15.98 229.63-15.98 229.63-18.18Q229.63-21.03 227.97-22.21 226.31-23.4 223.36-23.4L223.36-23.4Q222.06-23.4 220.31-23.09 218.56-22.78 216.51-22.05L216.51-22.05 215.41-25.23Q217.83-26.13 219.96-26.5 222.08-26.88 224.01-26.88L224.01-26.88Q228.93-26.88 231.4-24.59 233.86-22.3 233.86-18.38L233.86-18.38ZM222.98-2.63L222.98-2.63Q224.93-2.63 226.71-3.61 228.48-4.6 229.63-6.35L229.63-6.35 229.63-13.13 225.83-13.13Q221.48-13.13 219.7-11.63 217.91-10.13 217.91-7.6L217.91-7.6Q217.91-5.15 219.17-3.89 220.43-2.63 222.98-2.63ZM264.28-4.17L265.91-1.33Q264.56-0.43 262.63 0.08 260.71 0.58 258.86 0.58L258.86 0.58Q254.61 0.58 252.31-1.65 250.01-3.88 250.01-7.38L250.01-7.38 250.01-23.08 243.96-23.08 243.96-26.33 250.01-26.33 250.01-32.3 254.21-32.8 254.21-26.33 263.31-26.33 262.81-23.08 254.21-23.08 254.21-7.43Q254.21-5.23 255.37-4.08 256.53-2.93 259.23-2.93L259.23-2.93Q260.71-2.93 261.96-3.28 263.21-3.63 264.28-4.17L264.28-4.17ZM283.95-2.9L283.95-2.9Q286.98-2.9 288.74-4.04 290.5-5.18 290.5-7.08L290.5-7.08Q290.5-8.28 290.06-9.15 289.63-10.03 288.28-10.73 286.93-11.43 284.13-12.13L284.13-12.13Q281.4-12.8 279.39-13.69 277.38-14.58 276.27-16 275.15-17.43 275.15-19.7L275.15-19.7Q275.15-21.93 276.42-23.54 277.68-25.15 279.93-26.01 282.18-26.88 285.15-26.88L285.15-26.88Q288.33-26.88 290.69-26.04 293.05-25.2 294.7-23.98L294.7-23.98 292.85-21.13Q291.35-22.15 289.55-22.81 287.75-23.48 285.2-23.48L285.2-23.48Q282.1-23.48 280.8-22.51 279.5-21.55 279.5-20.03L279.5-20.03Q279.5-18.88 280.14-18.11 280.78-17.35 282.3-16.74 283.83-16.13 286.5-15.4L286.5-15.4Q289.08-14.73 290.99-13.78 292.9-12.83 293.98-11.28 295.05-9.73 295.05-7.28L295.05-7.28Q295.05-4.48 293.45-2.74 291.85-1 289.31-0.21 286.78 0.58 283.95 0.58L283.95 0.58Q280.38 0.58 277.87-0.46 275.35-1.5 273.65-2.98L273.65-2.98 276.05-5.75Q277.6-4.48 279.62-3.69 281.63-2.9 283.95-2.9Z" fill="black"></path><path d="M349.47 0L346.72-8.78 333.1-8.78 330.35 0 326.07 0 337.27-34.43 342.82-34.43 354.02 0 349.47 0ZM339.95-30.78L334.22-12.38 345.6-12.38 339.95-30.78ZM358.05-36.93L370.32-36.93 370.32-6.5Q370.32-4.55 371.53-3.74 372.75-2.93 374.67-2.93L374.67-2.93Q375.87-2.93 376.95-3.18 378.02-3.43 379.1-3.85L379.1-3.85 380.22-0.78Q379.14-0.25 377.56 0.16 375.97 0.58 373.97 0.58L373.97 0.58Q370.47 0.58 368.3-1.36 366.12-3.3 366.12-6.73L366.12-6.73 366.12-33.6 358.05-33.6 358.05-36.93ZM391.32-26.33L403.39-26.33 403.39-3.33 410.82-3.33 410.82 0 391.07 0 391.07-3.33 399.19-3.33 399.19-23 391.32-23 391.32-26.33ZM400.04-38.65L400.04-38.65Q401.44-38.65 402.28-37.8 403.12-36.95 403.12-35.73L403.12-35.73Q403.12-34.45 402.28-33.59 401.44-32.73 400.04-32.73L400.04-32.73Q398.72-32.73 397.87-33.59 397.02-34.45 397.02-35.73L397.02-35.73Q397.02-36.95 397.87-37.8 398.72-38.65 400.04-38.65ZM441.47-29.13L441.47-29.13 442.77-25.18Q441.09-24.65 439.19-24.53 437.29-24.4 435.07-24.4L435.07-24.4Q437.34-23.35 438.49-21.69 439.64-20.03 439.64-17.78L439.64-17.78Q439.64-15.18 438.47-13.15 437.29-11.13 435.08-9.98 432.86-8.83 429.74-8.83L429.74-8.83Q428.42-8.83 427.53-8.95 426.64-9.08 425.82-9.33L425.82-9.33Q425.22-8.93 424.83-8.22 424.44-7.53 424.44-6.78L424.44-6.78Q424.44-5.83 425.19-5.2 425.94-4.58 427.97-4.58L427.97-4.58 432.72-4.58Q435.36-4.58 437.48-3.63 439.59-2.68 440.8-1.07 442.02 0.53 442.02 2.58L442.02 2.58Q442.02 6.45 438.73 8.53 435.44 10.6 429.44 10.6L429.44 10.6Q425.24 10.6 422.82 9.74 420.39 8.88 419.35 7.11 418.32 5.35 418.32 2.68L418.32 2.68 422.12 2.68Q422.12 4.2 422.72 5.2 423.32 6.2 424.89 6.69 426.47 7.18 429.42 7.18L429.42 7.18Q432.32 7.18 434.15 6.69 435.99 6.2 436.88 5.24 437.77 4.28 437.77 2.85L437.77 2.85Q437.77 0.98 436.07 0.03 434.36-0.93 431.82-0.93L431.82-0.93 427.11-0.93Q423.72-0.93 422.1-2.43 420.49-3.93 420.49-5.88L420.49-5.88Q420.49-7.15 421.23-8.35 421.97-9.55 423.39-10.48L423.39-10.48Q421.12-11.68 420.04-13.45 418.97-15.23 418.97-17.75L418.97-17.75Q418.97-20.43 420.29-22.49 421.62-24.55 423.99-25.73 426.36-26.9 429.47-26.9L429.47-26.9Q432.79-26.93 434.86-27.19 436.94-27.45 438.43-27.95 439.92-28.45 441.47-29.13ZM429.47-23.83L429.47-23.83Q426.29-23.83 424.78-22.11 423.27-20.4 423.27-17.75L423.27-17.75Q423.27-15.08 424.82-13.35 426.36-11.63 429.57-11.63L429.57-11.63Q432.36-11.63 433.83-13.25 435.29-14.88 435.29-17.78L435.29-17.78Q435.29-20.75 433.83-22.29 432.36-23.83 429.47-23.83ZM454.26 0L450.06 0 450.06-26.33 453.64-26.33 453.96-22.68Q455.56-24.7 457.98-25.79 460.39-26.88 462.66-26.88L462.66-26.88Q466.54-26.88 468.3-24.83 470.06-22.78 470.06-19.13L470.06-19.13 470.06 0 465.86 0 465.86-16.03Q465.86-18.73 465.56-20.39 465.26-22.05 464.31-22.81 463.36-23.58 461.36-23.58L461.36-23.58Q459.81-23.58 458.45-22.9 457.09-22.23 456.03-21.21 454.96-20.2 454.26-19.18L454.26-19.18 454.26 0ZM501.06-11.68L483.36-11.68Q483.49-8.63 484.54-6.69 485.59-4.75 487.31-3.84 489.04-2.93 491.06-2.93L491.06-2.93Q493.09-2.93 494.72-3.53 496.36-4.13 498.09-5.3L498.09-5.3 500.06-2.53Q498.21-1.07 495.85-0.25 493.49 0.58 491.01 0.58L491.01 0.58Q487.19 0.58 484.49-1.15 481.79-2.88 480.37-5.96 478.96-9.05 478.96-13.13L478.96-13.13Q478.96-17.13 480.39-20.23 481.81-23.33 484.39-25.1 486.96-26.88 490.46-26.88L490.46-26.88Q493.79-26.88 496.19-25.31 498.59-23.75 499.87-20.86 501.16-17.98 501.16-13.98L501.16-13.98Q501.16-13.3 501.14-12.71 501.11-12.13 501.06-11.68L501.06-11.68ZM490.51-23.43L490.51-23.43Q487.59-23.43 485.62-21.35 483.66-19.28 483.39-14.93L483.39-14.93 497.11-14.93Q497.04-19.15 495.26-21.29 493.49-23.43 490.51-23.43ZM525.81-23.78L525.81-37.45 530.01-36.93 530.01 0 526.33 0 525.93-3.48Q524.46-1.38 522.55-0.4 520.63 0.58 518.46 0.58L518.46 0.58Q515.03 0.58 512.81-1.15 510.58-2.88 509.51-5.96 508.43-9.05 508.43-13.13L508.43-13.13Q508.43-17.07 509.66-20.19 510.88-23.3 513.2-25.09 515.51-26.88 518.76-26.88L518.76-26.88Q521.03-26.88 522.76-26.09 524.48-25.3 525.81-23.78L525.81-23.78ZM519.86-23.5L519.86-23.5Q516.56-23.5 514.78-20.93 513.01-18.35 513.01-13.13L513.01-13.13Q513.01-9.73 513.73-7.43 514.46-5.13 515.87-3.98 517.28-2.83 519.33-2.83L519.33-2.83Q521.58-2.83 523.17-4.1 524.76-5.38 525.81-6.98L525.81-6.98 525.81-20.13Q524.73-21.73 523.21-22.61 521.68-23.5 519.86-23.5Z" fill="white"></path></g></svg></g></svg></g></svg></g></svg></g><g><svg viewBox="0 0 171.52274993030505 144.90501954754467" height="144.90501954754467" width="171.52274993030505"><g><svg xmlns="http://www.w3.org/2000/svg" xmlns:xlink="http://www.w3.org/1999/xlink" version="1.1" x="0" y="0" viewBox="1.8319503776781467 9.346999941129708 96.33704962232186 81.38700005887029" enable-background="new 0 0 100 100.08" xml:space="preserve" height="144.90501954754467" width="171.52274993030505" class="icon-icon-0" data-fill-palette-color="accent" id="SvgjsSvg2367"><path d="M25.031 74.703C16.997 68.317 9.14 60.465 5.161 51.975L5.563 51.971H7.663C8.16 51.971 8.606 51.691 8.819 51.242L9.09 50.674 11.521 45.518 13.593 50.674 15.363 55.063A1.269 1.269 0 0 0 17.785 54.821L18.553 50.675 22.333 30.245 23.575 50.675z" fill="white"></path><path d="M94.629 51.938C84.612 73.361 49.886 90.734 49.886 90.734S39.296 85.435 28.124 77.088L35.214 52.828 35.985 54.743C36.174 55.217 36.631 55.528 37.145 55.533 37.661 55.543 38.122 55.234 38.325 54.765L40.086 50.673 42.194 45.774 45.085 50.673 45.464 51.315C45.694 51.703 46.11 51.937 46.558 51.937H94.629z" fill="white"></path><path d="M98.169 37.795C98.169 41.928 97.289 45.857 95.699 49.405H47.28L43.108 42.333A1.26 1.26 0 0 0 41.938 41.715 1.26 1.26 0 0 0 40.854 42.477L37.328 50.674 37.197 50.977 37.075 50.674 36.194 48.496A1.262 1.262 0 0 0 33.808 48.615L33.206 50.674 27.336 70.76 26.112 50.676 24.238 19.77A1.266 1.266 0 0 0 21.728 19.616L16.087 50.075 12.791 41.879A1.29 1.29 0 0 0 11.647 41.084C11.147 41.07 10.682 41.355 10.464 41.812L6.865 49.448H5.588L4.224 49.437A2.3 2.3 0 0 0 3.991 49.13 27 27 0 0 1 3.205 46.556 28.3 28.3 0 0 1 1.832 37.795C1.832 22.085 14.562 9.347 30.271 9.347 37.935 9.347 44.884 12.376 50 17.304 55.116 12.376 62.065 9.347 69.729 9.347 85.438 9.346 98.169 22.085 98.169 37.795" fill="white"></path></svg></g></svg></g></svg></g><defs><mask></mask></defs></svg><rect width="395.52" height="98.74547379274013" fill="black" stroke="none" visibility="hidden"></rect></g></mask><linearGradient x1="0" x2="1" y1="0.548" y2="0.55" id="e0a5cd3f-b9a2-494a-8028-ae1ae81c07a5"><stop stop-color="#ff6cab" offset="0"></stop><stop stop-color="#7366ff" offset="1"></stop></linearGradient><rect width="395.52" height="98.74547379274013" fill="#ffffff" mask="url(#0b1be4bf-c6f7-42f9-a796-d8fefc13e366)" data-fill-palette-color="accent"></rect></svg><rect width="395.52" height="98.74547379274013" fill="none" stroke="none" visibility="hidden"></rect></g></svg></g></svg>